<svg xmlns="http://www.w3.org/2000/svg" width="22" height="22" viewBox="0 0 22 22" class="header__item__icon"><path d="M18.037 3.133A10.442 10.442 0 0 0 10.6.05C4.806.05.09 4.766.088 10.562a10.49 10.49 0 0 0 1.404 5.255L0 21.265l5.573-1.462c1.541.84 3.268 1.28 5.023 1.28h.005c5.793 0 10.51-4.716 10.512-10.512a10.449 10.449 0 0 0-3.076-7.438zM10.6 19.305h-.004A8.725 8.725 0 0 1 6.15 18.09L5.83 17.9l-3.306.868.883-3.226-.208-.331a8.72 8.72 0 0 1-1.334-4.648c0-4.817 3.92-8.737 8.74-8.737a8.739 8.739 0 0 1 8.733 8.744c-.002 4.817-3.921 8.735-8.737 8.735zm4.792-6.544c-.262-.131-1.554-.766-1.795-.857-.24-.09-.415-.131-.59.132s-.679.854-.832 1.03c-.153.175-.306.197-.57.065-.262-.131-1.108-.409-2.112-1.303-.78-.697-1.31-1.557-1.461-1.82-.152-.263-.016-.403.115-.536.118-.118.263-.307.394-.46.13-.154.175-.263.262-.438.088-.176.044-.33-.021-.46-.066-.132-.592-1.425-.81-1.95-.214-.513-.43-.444-.591-.455-.151-.007-.329-.009-.504-.009a.965.965 0 0 0-.7.329c-.241.263-.92.898-.92 2.191 0 1.293.941 2.542 1.072 2.718.132.175 1.853 2.828 4.487 3.966.489.21.989.396 1.497.554.63.202 1.202.172 1.654.105.504-.076 1.554-.636 1.774-1.25.219-.613.218-1.139.15-1.248-.067-.11-.236-.17-.499-.302v-.002z" fill="#25D366" fill-rule="evenodd"></path></svg>